Coordinates
version=1
nRows=11
nColumns=40
inDegrees=yes

Units are S.I. units (second, meters, Newtons, ...)
If the header above contains a line with 'inDegrees', this indicates whether rotational values are in degrees (yes) or radians (no).

endheader
time	pelvis_tilt	pelvis_list	pelvis_rotation	pelvis_tx	pelvis_ty	pelvis_tz	hip_flexion_r	hip_adduction_r	hip_rotation_r	knee_angle_r	knee_angle_r_beta	ankle_angle_r	subtalar_angle_r	mtp_angle_r	hip_flexion_l	hip_adduction_l	hip_rotation_l	knee_angle_l	knee_angle_l_beta	ankle_angle_l	subtalar_angle_l	mtp_angle_l	lumbar_extension	lumbar_bending	lumbar_rotation	arm_flex_r	arm_add_r	arm_rot_r	elbow_flex_r	pro_sup_r	wrist_flex_r	wrist_dev_r	arm_flex_l	arm_add_l	arm_rot_l	elbow_flex_l	pro_sup_l	wrist_flex_l	wrist_dev_l
      5.32000000	     -7.93748871	      3.81796469	     -1.82294502	     -0.19875222	      1.16829461	     -0.89764829	     10.01475053	    -10.76081631	    -27.35944181	      0.61872013	      0.01079870	    -37.01415687	      0.00000000	      0.00000000	     11.10647242	     -3.53697866	    -24.18918447	      4.32351584	      0.07545959	    -36.69777516	      0.00000000	      0.00000000	    -12.84903867	     -4.27444499	     -7.71179035	    -26.06773023	    -53.84996584	     36.16595992	    104.77196230	     87.65836851	      0.00000000	      0.00000000	    -48.44926511	    -50.24931011	     15.13849427	    107.50689264	     88.07205845	      0.00000000	      0.00000000
      5.32500000	     -8.41368535	      3.80774196	     -1.79639464	     -0.19685334	      1.17889548	     -0.89742247	     10.55844800	    -10.59594866	    -29.52204032	      0.60544883	      0.01056708	    -37.07291573	      0.00000000	      0.00000000	     11.55142744	     -3.60128984	    -26.87893793	      4.13817990	      0.07222486	    -37.74861821	      0.00000000	      0.00000000	    -11.88013376	     -4.32282346	     -7.68745968	    -25.85354330	    -53.75487728	     36.48224577	    104.47586671	     87.67072568	      0.00000000	      0.00000000	    -47.99240998	    -50.33709192	     15.54548524	    107.10674085	     88.07885215	      0.00000000	      0.00000000
      5.33000000	     -8.88039658	      3.72928110	     -1.83777924	     -0.19543359	      1.18926536	     -0.89708199	     11.08427330	    -10.29824444	    -30.84384533	      0.66531733	      0.01161198	    -37.45684623	      0.00000000	      0.00000000	     12.29131288	     -3.91010688	    -29.80462314	      4.91176604	      0.08572649	    -38.17266289	      0.00000000	      0.00000000	    -10.96460850	     -4.29647831	     -7.53376857	    -25.43653170	    -53.72510811	     37.07500301	    104.16668284	     87.65108000	      0.00000000	      0.00000000	    -47.05648620	    -50.64620633	     16.55454243	    106.57338076	     88.06789514	      0.00000000	      0.00000000
      5.33500000	     -9.36239147	      3.58899657	     -1.81090183	     -0.19459308	      1.19945944	     -0.89682085	     11.65424168	     -9.94168363	    -31.74140216	      0.80065230	      0.01397402	    -37.55619162	      0.00000000	      0.00000000	     12.95525787	     -4.18228005	    -31.46130135	      5.40736432	      0.09437631	    -38.30123633	      0.00000000	      0.00000000	    -10.16172808	     -4.17812408	     -7.48285310	    -25.14943479	    -53.61400164	     37.37530844	    103.75719827	     87.65978982	      0.00000000	      0.00000000	    -46.35087395	    -50.67289891	     17.06845488	    105.90334972	     88.09651162	      0.00000000	      0.00000000
      5.34000000	     -9.65837954	      3.41254275	     -1.93578481	     -0.19510741	      1.20970203	     -0.89652355	     12.18635542	     -9.57957327	    -31.54428471	      1.09062522	      0.01903500	    -37.84483985	      0.00000000	      0.00000000	     13.67908447	     -4.65391492	    -32.83736171	      6.50429038	      0.11352128	    -38.00927449	      0.00000000	      0.00000000	     -9.67347226	     -4.03177292	     -7.20098317	    -24.40339000	    -53.76138455	     38.16004023	    103.56739431	     87.64644047	      0.00000000	      0.00000000	    -44.92706295	    -51.16459259	     18.28468503	    105.54091691	     88.05418084	      0.00000000	      0.00000000
      5.34500000	     -9.92339934	      3.21991305	     -1.96350822	     -0.19550760	      1.21979575	     -0.89638620	     12.69842324	     -9.23585011	    -31.03448512	      1.50319045	      0.02623562	    -38.20150161	      0.00000000	      0.00000000	     14.27551951	     -5.00500950	    -32.92124025	      7.23861705	      0.12633770	    -37.97148105	      0.00000000	      0.00000000	     -9.27361974	     -3.84082170	     -7.03496424	    -23.78755204	    -53.80227550	     38.84039921	    103.21183173	     87.63676102	      0.00000000	      0.00000000	    -43.59419912	    -51.45942209	     19.43789036	    104.91341204	     88.04825168	      0.00000000	      0.00000000
      5.35000000	    -10.12029179	      3.09202179	     -2.04395793	     -0.19587630	      1.22967890	     -0.89612402	     13.20355655	     -8.97963317	    -30.17336786	      2.07603819	      0.03623370	    -38.60819932	      0.00000000	      0.00000000	     14.75958588	     -5.25882384	    -32.46445861	      7.83910873	      0.13681826	    -38.07872964	      0.00000000	      0.00000000	     -8.93363579	     -3.73284791	     -6.76912091	    -23.20898662	    -53.80570806	     39.60443668	    102.79575593	     87.63505932	      0.00000000	      0.00000000	    -42.12256511	    -51.83374199	     20.92576134	    104.23440622	     88.06685767	      0.00000000	      0.00000000
      5.35500000	    -10.41259822	      2.93993677	     -2.00983767	     -0.19609882	      1.23920359	     -0.89602228	     13.81228859	     -8.75471160	    -29.15686816	      2.75350944	      0.04805781	    -38.86199672	      0.00000000	      0.00000000	     15.34397158	     -5.48467486	    -31.38549902	      8.39377595	      0.14649903	    -38.36050225	      0.00000000	      0.00000000	     -8.56475227	     -3.59663520	     -6.70312160	    -22.62547324	    -53.74718006	     40.42509418	    102.28576397	     87.65097594	      0.00000000	      0.00000000	    -40.85191132	    -51.96261987	     21.96925513	    103.62111438	     88.00876184	      0.00000000	      0.00000000
      5.36000000	    -10.51963902	      2.86913580	     -2.06336965	     -0.19636170	      1.24850504	     -0.89579515	     14.23695245	     -8.58104614	    -27.93142998	      3.37570088	      0.05891709	    -39.02780829	      0.00000000	      0.00000000	     15.68744737	     -5.60523957	    -29.97492591	      8.87172248	      0.15484077	    -38.61024564	      0.00000000	      0.00000000	     -8.37794064	     -3.55804822	     -6.58161285	    -21.85980903	    -53.75027495	     41.41051503	    101.87671805	     87.63463781	      0.00000000	      0.00000000	    -39.57686253	    -52.18774010	     23.32852276	    102.99371809	     88.02215208	      0.00000000	      0.00000000
      5.36500000	    -10.54723976	      2.75301719	     -2.11781192	     -0.19737734	      1.25745422	     -0.89553654	     14.62706134	     -8.36774106	    -26.47464329	      3.97106651	      0.06930819	    -39.09260283	      0.00000000	      0.00000000	     16.02853403	     -5.76780517	    -28.40351590	      9.36660435	      0.16347809	    -38.76177555	      0.00000000	      0.00000000	     -8.34616674	     -3.47022328	     -6.48091920	    -21.04800439	    -53.85353019	     42.30259348	    101.46007503	     87.61633876	      0.00000000	      0.00000000	    -38.34194911	    -52.44417273	     24.55023758	    102.44391473	     88.04323666	      0.00000000	      0.00000000
      5.37000000	    -10.47463647	      2.63521105	     -2.16051564	     -0.19761427	      1.26613251	     -0.89521144	     14.81899962	     -8.13523879	    -25.02601785	      4.41762593	      0.07710212	    -39.10787603	      0.00000000	      0.00000000	     16.13987674	     -5.86886814	    -26.78669931	      9.65185640	      0.16845667	    -38.83266873	      0.00000000	      0.00000000	     -8.38050703	     -3.38879542	     -6.44959344	    -20.32395228	    -53.92461013	     43.28750945	    101.05155358	     87.63604124	      0.00000000	      0.00000000	    -37.28167450	    -52.57841006	     25.76873547	    101.89257771	     88.05473309	      0.00000000	      0.00000000
